<svg xmlns="http://www.w3.org/2000/svg" width="33.464" height="37.247" viewBox="0 0 33.464 37.247"><defs><style>.a{fill:#fff;}</style></defs><g transform="translate(-26)"><g transform="translate(50.007 28.808)"><path class="a" d="M356.727,396a.727.727,0,1,0,.727.727A.728.728,0,0,0,356.727,396Z" transform="translate(-356 -396)"/></g><g transform="translate(26)"><g transform="translate(0)"><path class="a" d="M52.526,26.456,49.068,25.3l-1.241-2.483a7.968,7.968,0,0,0,2.157-4.215l.155-.928h1.324A2.185,2.185,0,0,0,53.644,15.5V10.912a10.912,10.912,0,1,0-21.824,0V15.5a2.186,2.186,0,0,0,1.455,2.057v.853a2.185,2.185,0,0,0,2.182,2.182H36.1a7.892,7.892,0,0,0,1.22,1.89c.1.118.21.233.321.345L36.4,25.3l-3.458,1.152A10.723,10.723,0,0,0,26,36.52a.727.727,0,0,0,.727.727H58.737a.728.728,0,0,0,.727-.727A10.723,10.723,0,0,0,52.526,26.456ZM52.189,15.5a.728.728,0,0,1-.727.727h-1.11c.185-1.432.308-2.957.358-4.458,0-.042,0-.084,0-.125h1.476ZM34,16.223a.728.728,0,0,1-.727-.727V11.64h1.477q0,.114.008.229v.008h0c.051,1.46.173,2.945.353,4.346H34Zm1.455,2.91a.728.728,0,0,1-.727-.727v-.727h.6l.155.928c.03.176.066.352.108.527Zm-.726-8.948H33.3a9.458,9.458,0,0,1,18.859,0H50.733a7.368,7.368,0,0,0-7.35-7.275h-1.3A7.368,7.368,0,0,0,34.731,10.185Zm7.35-5.82h1.3a5.915,5.915,0,0,1,5.9,5.922c0,.229,0,.428-.006.61,0,0,0,0,0,.007l-.91-.13a11.69,11.69,0,0,1-6.572-3.286.728.728,0,0,0-.514-.213,6.582,6.582,0,0,0-5.06,2.394A5.914,5.914,0,0,1,42.081,4.365ZM37.1,19.133a41.582,41.582,0,0,1-.873-7.06l.979-1.306A5.121,5.121,0,0,1,40.99,8.738a13.158,13.158,0,0,0,7.168,3.476l1.071.153c-.072,1.519-.218,3.044-.427,4.446h0c-.067.451-.119.741-.253,1.551a6.179,6.179,0,0,1-4.386,4.97,5.724,5.724,0,0,1-6.425-2.748H39.22a2.186,2.186,0,0,0,2.057,1.455h1.455a2.182,2.182,0,1,0,0-4.365H41.277a2.183,2.183,0,0,0-2.059,1.455Zm4.119,5.676a7.3,7.3,0,0,0,2.706.061l-1.285,1.359Zm.42,2.478-2.307,2.44A27.718,27.718,0,0,1,37.7,25.95l.867-1.733Zm5.138-3.316.99,1.979a27.71,27.71,0,0,1-1.629,3.778l-2.47-2.47ZM40.55,19.86a.728.728,0,0,1,.727-.727h1.455a.727.727,0,0,1,0,1.455H41.277A.728.728,0,0,1,40.55,19.86ZM27.484,35.792A9.194,9.194,0,0,1,33.4,27.836l3.062-1.021a29.163,29.163,0,0,0,2.071,4.491l0,.007h0a29.171,29.171,0,0,0,1.991,3.041l.895,1.437Zm15.248-.648-.987-1.584q-.017-.027-.035-.052a27.739,27.739,0,0,1-1.639-2.449l2.594-2.744L45.4,31.049a27.707,27.707,0,0,1-1.645,2.459C43.719,33.555,43.769,33.48,42.732,35.144Zm1.31.648.895-1.437a29.158,29.158,0,0,0,2.005-3.065l.011-.019v0A29.139,29.139,0,0,0,49,26.816l3.062,1.021a9.194,9.194,0,0,1,5.915,7.956Z" transform="translate(-26)"/></g></g><g transform="translate(52.563 30.197)"><g transform="translate(0)"><path class="a" d="M394.37,417.74a7.273,7.273,0,0,0-2.059-2.5.727.727,0,1,0-.887,1.153,5.809,5.809,0,0,1,1.645,2,.728.728,0,0,0,1.3-.65Z" transform="translate(-391.139 -415.088)"/></g></g></g></svg>